HIERARCHY
ROOT Hips
{
  OFFSET 47.6842 100.082 -2.47709
  CHANNELS 6 Xposition Yposition Zposition Zrotation Xrotation Yrotation
  JOINT spine
  {
    OFFSET 0 8.81705 0.507024
    CHANNELS 3 Zrotation Xrotation Yrotation
    JOINT spine1
    {
      OFFSET 0 10.7766 0
      CHANNELS 3 Zrotation Xrotation Yrotation
      JOINT spine2
      {
        OFFSET 0 10.3259 0
        CHANNELS 3 Zrotation Xrotation Yrotation
        JOINT Neck
        {
          OFFSET 0 26.511 1.26395
          CHANNELS 3 Zrotation Xrotation Yrotation
          JOINT Head
          {
            OFFSET 0 8.00966 0
            CHANNELS 3 Zrotation Xrotation Yrotation
            End Site
            {
              OFFSET 0 19.3879 -6.39386
            }
          }
        }
        JOINT RightShoulder
        {
          OFFSET -4.34795 11.1512 -0.605422
          CHANNELS 3 Zrotation Xrotation Yrotation
          JOINT RightArm
          {
            OFFSET 0 14.6258 0
            CHANNELS 3 Zrotation Xrotation Yrotation
            JOINT RightArmRoll
            {
              OFFSET 0 7.3834 0
              CHANNELS 3 Zrotation Xrotation Yrotation
              JOINT RightForeArm
              {
                OFFSET 0 21.5052 0
                CHANNELS 3 Zrotation Xrotation Yrotation
                JOINT RightForeArmRoll
                {
                  OFFSET 0 8.28532 0
                  CHANNELS 3 Zrotation Xrotation Yrotation
                  JOINT RightHand
                  {
                    OFFSET 0 16.6268 0
                    CHANNELS 3 Zrotation Xrotation Yrotation
                    End Site
                    {
                      OFFSET 0 0 0
                    }
                  }
                }
              }
            }
          }
        }
        JOINT LeftShoulder
        {
          OFFSET 4.34795 11.1512 -0.605422
          CHANNELS 3 Zrotation Xrotation Yrotation
          JOINT LeftArm
          {
            OFFSET 0 14.6258 0
            CHANNELS 3 Zrotation Xrotation Yrotation
            JOINT LeftArmRoll
            {
              OFFSET 0 7.3834 0
              CHANNELS 3 Zrotation Xrotation Yrotation
              JOINT LeftForeArm
              {
                OFFSET 0 21.5052 0
                CHANNELS 3 Zrotation Xrotation Yrotation
                JOINT LeftForeArmRoll
                {
                  OFFSET 0 8.28532 0
                  CHANNELS 3 Zrotation Xrotation Yrotation
                  JOINT LeftHand
                  {
                    OFFSET 0 16.6268 0
                    CHANNELS 3 Zrotation Xrotation Yrotation
                    End Site
                    {
                      OFFSET 0 0 0
                    }
                  }
                }
              }
            }
          }
        }
      }
    }
  }
  JOINT RightUpLeg
  {
    OFFSET -7.8151 -1.43309 -1.20217
    CHANNELS 3 Zrotation Xrotation Yrotation
    JOINT RightUpLegRoll
    {
      OFFSET 0 19.4959 0
      CHANNELS 3 Zrotation Xrotation Yrotation
      JOINT RightLeg
      {
        OFFSET 0 -24.1427 0
        CHANNELS 3 Zrotation Xrotation Yrotation
        JOINT RightLegRoll
        {
          OFFSET 0 24.2217 0
          CHANNELS 3 Zrotation Xrotation Yrotation
          JOINT RightFoot
          {
            OFFSET 0 20.1605 0
            CHANNELS 3 Zrotation Xrotation Yrotation
            JOINT RightToeBase
            {
              OFFSET 0 16.8532 0
              CHANNELS 3 Zrotation Xrotation Yrotation
              End Site
              {
                OFFSET 0.00714343 8.16187 -0.94078
              }
            }
          }
        }
      }
    }
  }
  JOINT LeftUpLeg
  {
    OFFSET 7.8151 -1.43309 -1.20217
    CHANNELS 3 Zrotation Xrotation Yrotation
    JOINT LeftUpLegRoll
    {
      OFFSET 0 19.496 0
      CHANNELS 3 Zrotation Xrotation Yrotation
      JOINT LeftLeg
      {
        OFFSET 0 24.1426 0
        CHANNELS 3 Zrotation Xrotation Yrotation
        JOINT LeftLegRoll
        {
          OFFSET 0 24.4456 0
          CHANNELS 3 Zrotation Xrotation Yrotation
          JOINT LeftFoot
          {
            OFFSET 0 19.9366 0
            CHANNELS 3 Zrotation Xrotation Yrotation
            JOINT LeftToeBase
            {
              OFFSET 0 16.8532 0
              CHANNELS 3 Zrotation Xrotation Yrotation
              End Site
              {
                OFFSET -0.0320138 8.16187 -0.94078
              }
            }
          }
        }
      }
    }
  }
}
MOTION
Frames: 11
Frame Time: 0.00208333
51.6838 99.8068 8.99056 1.89634 -1.65113 4.41442 -0.102405 -2.05763 0.100876 -0.184538 -0.112603 0.211143 -0.187341 1.53245 0.214333 -11.5064 20.0384 3.46761 6.43305 -2.991 0.870615 58.016 -2.23873 -1.34208 116.639 12.0633 15.535 -1.03215e-005 -6.01834e-007 -1.0499e-006 10.1598 0.816756 -0.406097 -1.29589e-005 -5.12718e-006 -3.00976 8.02896 -4.95146 0.697687 -63.5117 -5.46854 3.67592 -111.929 18.2755 -0.5935 1.27518e-007 8.72779e-008 9.26074e-007 -12.9412 6.24153 1.11834 -1.30939e-006 2.86142e-006 3 -8.02887 -4.95144 -0.697686 175.438 4.56635 1.90739 180 7.01562e-015 178.989 176.967 15.6861 179.775 -1.01052e-006 -4.48279e-006 0.256268 -22.3755 72.3667 23.9891 8.13415 25.2328 -3.48384 -178.562 2.67124 3.05027 4.54188e-006 -4.6773e-006 -1.02973 -2.50302 -9.93483 0.218295 -1.6041e-006 -1.61639e-006 -0.0849503 17.5499 68.9729 -20.3554 -8.12926 25.2331 3.48465 
51.6884 99.8035 8.94594 1.89754 -1.65111 4.39276 -0.101335 -2.05428 0.101689 -0.183547 -0.105915 0.212729 -0.186337 1.53914 0.215901 -11.5121 20.0317 3.47375 6.42387 -2.98318 0.874022 58.0172 -2.23681 -1.34107 116.652 12.1521 15.4875 -1.03215e-005 -6.01834e-007 -1.0499e-006 10.1653 0.763584 -0.400092 -1.29589e-005 -5.12718e-006 -3.00976 8.02896 -4.95146 0.697687 -63.5171 -5.46996 3.67706 -111.932 18.3075 -0.570718 1.27518e-007 8.72779e-008 9.26074e-007 -12.947 6.2463 1.11977 -1.30939e-006 2.86142e-006 3 -8.02887 -4.95144 -0.697686 175.437 4.58284 1.90448 180 7.01562e-015 178.989 176.975 15.6963 179.773 -1.01052e-006 -4.48279e-006 0.256268 -22.3638 72.3621 23.9824 8.13415 25.2328 -3.48384 -178.562 2.67474 3.04688 4.54188e-006 -4.6773e-006 -1.02973 -2.50797 -9.937 0.217212 -1.6041e-006 -1.61639e-006 -0.0849503 17.5504 68.9723 -20.3523 -8.12926 25.2331 3.48465 
51.6741 99.7957 8.94686 1.89896 -1.65178 4.37072 -0.100277 -2.05088 0.102619 -0.18262 -0.0991154 0.214574 -0.185397 1.54594 0.217731 -11.5182 20.0253 3.48012 6.41517 -2.97526 0.877583 58.0188 -2.23508 -1.3402 116.665 12.2412 15.4402 -1.03215e-005 -6.01834e-007 -1.0499e-006 10.1707 0.708487 -0.393787 -1.29589e-005 -5.12718e-006 -3.00976 8.02896 -4.95146 0.697687 -63.5231 -5.47109 3.67807 -111.934 18.3398 -0.547766 1.27518e-007 8.72779e-008 9.26074e-007 -12.9532 6.25121 1.12125 -1.30939e-006 2.86142e-006 3 -8.02887 -4.95144 -0.697686 175.436 4.59834 1.90171 180 7.01562e-015 178.989 176.982 15.7064 179.771 -1.01052e-006 -4.48279e-006 0.256268 -22.3523 72.3576 23.976 8.13415 25.2328 -3.48384 -178.563 2.67689 3.04374 4.54188e-006 -4.6773e-006 -1.02975 -2.51272 -9.9385 0.216129 -1.6041e-006 -1.61639e-006 -0.0849503 17.5508 68.9717 -20.3491 -8.12926 25.2331 3.48465 
51.6711 99.7981 8.97807 1.90054 -1.65291 4.34842 -0.0992268 -2.04744 0.103632 -0.181738 -0.0922363 0.2166 -0.184503 1.55282 0.219742 -11.5245 20.0191 3.48664 6.40682 -2.96727 0.881251 58.0206 -2.23348 -1.33945 116.678 12.3308 15.3931 -1.03215e-005 -6.01834e-007 -1.0499e-006 10.1761 0.652041 -0.387272 -1.29589e-005 -5.12718e-006 -3.00976 8.02896 -4.95146 0.697687 -63.5296 -5.47201 3.67901 -111.935 18.3723 -0.524692 1.27518e-007 8.72779e-008 9.26074e-007 -12.9597 6.25621 1.12275 -1.30939e-006 2.86142e-006 3 -8.02887 -4.95144 -0.697686 175.435 4.61315 1.89905 180 7.01562e-015 178.989 176.989 15.7165 179.769 -1.01052e-006 -4.48279e-006 0.256268 -22.3408 72.3534 23.9697 8.13415 25.2328 -3.48384 -178.564 2.67808 3.04079 4.54188e-006 -4.6773e-006 -1.02976 -2.51733 -9.93952 0.215047 -1.6041e-006 -1.61639e-006 -0.0849503 17.5511 68.9712 -20.3458 -8.12926 25.2331 3.48465 
51.6809 99.8098 8.96246 1.9022 -1.65432 4.32597 -0.0981812 -2.04398 0.104693 -0.180882 -0.0853121 0.218731 -0.183636 1.55974 0.221859 -11.5309 20.013 3.49325 6.39866 -2.95925 0.884979 58.0226 -2.23195 -1.33876 116.69 12.4205 15.346 -1.03215e-005 -6.01834e-007 -1.0499e-006 10.1814 0.594825 -0.380637 -1.29589e-005 -5.12718e-006 -3.00976 8.02896 -4.95146 0.697687 -63.5365 -5.47282 3.67989 -111.936 18.405 -0.501545 1.27518e-007 8.72779e-008 9.26074e-007 -12.9662 6.26126 1.12427 -1.30939e-006 2.86142e-006 3 -8.02887 -4.95144 -0.697686 175.433 4.62757 1.89644 180 7.01562e-015 178.989 176.996 15.7265 179.767 -1.01052e-006 -4.48279e-006 0.256268 -22.3294 72.3492 23.9636 8.13415 25.2328 -3.48384 -178.565 2.67872 3.03794 4.54188e-006 -4.6773e-006 -1.02979 -2.52186 -9.94026 0.213964 -1.6041e-006 -1.61639e-006 -0.0849503 17.5513 68.9706 -20.3425 -8.12926 25.2331 3.48465 
51.6801 99.8051 8.96264 1.90388 -1.65579 4.30349 -0.0971369 -2.04051 0.105765 -0.180032 -0.0783767 0.220887 -0.182775 1.56668 0.224001 -11.5373 20.0069 3.49988 6.39055 -2.95121 0.888723 58.0246 -2.23044 -1.33808 116.703 12.5103 15.299 -1.03215e-005 -6.01834e-007 -1.0499e-006 10.1868 0.537416 -0.373973 -1.29589e-005 -5.12718e-006 -3.00976 8.02896 -4.95146 0.697687 -63.5434 -5.4736 3.68077 -111.937 18.4377 -0.478373 1.27518e-007 8.72779e-008 9.26074e-007 -12.9729 6.26632 1.12579 -1.30939e-006 2.86142e-006 3 -8.02887 -4.95144 -0.697686 175.432 4.64189 1.89385 180 7.01562e-015 178.989 177.003 15.7365 179.765 -1.01052e-006 -4.48279e-006 0.256268 -22.318 72.345 23.9574 8.13415 25.2328 -3.48384 -178.567 2.67923 3.03512 4.54188e-006 -4.6773e-006 -1.02981 -2.52637 -9.94094 0.212882 -1.6041e-006 -1.61639e-006 -0.0849503 17.5515 68.9701 -20.3392 -8.12926 25.2331 3.48465 
51.6752 99.8005 8.9571 1.90551 -1.65713 4.28108 -0.0960904 -2.03706 0.106814 -0.179171 -0.0714638 0.222991 -0.181902 1.57359 0.226091 -11.5437 20.0008 3.50647 6.38234 -2.94319 0.892436 58.0266 -2.2289 -1.33737 116.716 12.6 15.252 -1.03215e-005 -6.01834e-007 -1.0499e-006 10.1922 0.480392 -0.367369 -1.29589e-005 -5.12718e-006 -3.00976 8.02896 -4.95146 0.697687 -63.5501 -5.47443 3.68166 -111.939 18.4704 -0.455224 1.27518e-007 8.72779e-008 9.26074e-007 -12.9794 6.27136 1.1273 -1.30939e-006 2.86142e-006 3 -8.02887 -4.95144 -0.697686 175.431 4.65641 1.89123 180 7.01562e-015 178.989 177.01 15.7465 179.763 -1.01052e-006 -4.48279e-006 0.256268 -22.3066 72.3408 23.9513 8.13415 25.2328 -3.48384 -178.568 2.68001 3.03225 4.54188e-006 -4.6773e-006 -1.02983 -2.53093 -9.94175 0.2118 -1.6041e-006 -1.61639e-006 -0.0849503 17.5518 68.9696 -20.3359 -8.12926 25.2331 3.48465 
51.6704 99.8021 8.9587 1.90704 -1.65813 4.25886 -0.0950384 -2.03363 0.107803 -0.178278 -0.0646073 0.224966 -0.180997 1.58045 0.228051 -11.5499 19.9946 3.51295 6.37389 -2.93522 0.896073 58.0284 -2.22726 -1.33659 116.729 12.6896 15.2048 -1.03215e-005 -6.01834e-007 -1.0499e-006 10.1976 0.424331 -0.360916 -1.29589e-005 -5.12718e-006 -3.00976 8.02896 -4.95146 0.697687 -63.5565 -5.47541 3.68262 -111.94 18.5029 -0.432149 1.27518e-007 8.72779e-008 9.26074e-007 -12.9858 6.27633 1.1288 -1.30939e-006 2.86142e-006 3 -8.02887 -4.95144 -0.697686 175.43 4.67142 1.88854 180 7.01562e-015 178.989 177.017 15.7565 179.761 -1.01052e-006 -4.48279e-006 0.256268 -22.2951 72.3365 23.945 8.13415 25.2328 -3.48384 -178.569 2.68147 3.02924 4.54188e-006 -4.6773e-006 -1.02984 -2.53558 -9.94291 0.210717 -1.6041e-006 -1.61639e-006 -0.0849503 17.5521 68.969 -20.3326 -8.12926 25.2331 3.48465 
51.683 99.8013 8.95618 1.90839 -1.65859 4.23693 -0.0939774 -2.03024 0.108698 -0.177335 -0.0578411 0.226733 -0.180041 1.58722 0.229802 -11.5558 19.9881 3.51924 6.36504 -2.92733 0.899587 58.0298 -2.22548 -1.33568 116.743 12.7788 15.1575 -1.03215e-005 -6.01834e-007 -1.0499e-006 10.2031 0.369811 -0.354704 -1.29589e-005 -5.12718e-006 -3.00976 8.02896 -4.95146 0.697687 -63.5624 -5.47663 3.68368 -111.943 18.5351 -0.409194 1.27518e-007 8.72779e-008 9.26074e-007 -12.9919 6.2812 1.13026 -1.30939e-006 2.86142e-006 3 -8.02887 -4.95144 -0.697686 175.429 4.68722 1.88572 180 7.01562e-015 178.989 177.025 15.7667 179.759 -1.01052e-006 -4.48279e-006 0.256268 -22.2836 72.332 23.9385 8.13415 25.2328 -3.48384 -178.57 2.68402 3.02603 4.54188e-006 -4.6773e-006 -1.02985 -2.54039 -9.94461 0.209634 -1.6041e-006 -1.61639e-006 -0.0849503 17.5525 68.9685 -20.3295 -8.12926 25.2331 3.48465 
51.6756 99.7972 8.92978 1.90951 -1.65831 4.21542 -0.0929041 -2.02692 0.109463 -0.176322 -0.0511989 0.228215 -0.179013 1.59386 0.231267 -11.5614 19.9813 3.52529 6.35565 -2.91955 0.902934 58.0309 -2.22348 -1.3346 116.758 12.8676 15.1099 -1.03215e-005 -6.01834e-007 -1.0499e-006 10.2087 0.31741 -0.348822 -1.29589e-005 -5.12718e-006 -3.00976 8.02896 -4.95146 0.697687 -63.5674 -5.47816 3.68487 -111.947 18.5668 -0.38641 1.27518e-007 8.72779e-008 9.26074e-007 -12.9976 6.28592 1.13167 -1.30939e-006 2.86142e-006 3 -8.02887 -4.95144 -0.697686 175.428 4.7041 1.88275 180 7.01562e-015 178.989 177.032 15.7769 179.757 -1.01052e-006 -4.48279e-006 0.256268 -22.2719 72.3273 23.9318 8.13415 25.2328 -3.48384 -178.57 2.68807 3.02253 4.54188e-006 -4.6773e-006 -1.02986 -2.54542 -9.94705 0.20855 -1.6041e-006 -1.61639e-006 -0.0849503 17.5531 68.9679 -20.3264 -8.12926 25.2331 3.48465 
51.6631 99.8065 8.93046 1.91032 -1.65707 4.19443 -0.091815 -2.02368 0.110063 -0.175221 -0.0447146 0.229334 -0.177895 1.60035 0.232366 -11.5665 19.9741 3.53102 6.34558 -2.91192 0.906067 58.0315 -2.22123 -1.33331 116.773 12.9558 15.062 -1.03215e-005 -6.01834e-007 -1.0499e-006 10.2144 0.267705 -0.343361 -1.29589e-005 -5.12718e-006 -3.00976 8.02896 -4.95146 0.697687 -63.5714 -5.4801 3.68622 -111.952 18.5981 -0.363846 1.27518e-007 8.72779e-008 9.26074e-007 -13.0028 6.29046 1.13303 -1.30939e-006 2.86142e-006 3 -8.02887 -4.95144 -0.697686 175.427 4.72236 1.87957 180 7.01562e-015 178.989 177.039 15.7873 179.755 -1.01052e-006 -4.48279e-006 0.256268 -22.26 72.3223 23.9247 8.13415 25.2328 -3.48384 -178.57 2.69402 3.01867 4.54188e-006 -4.6773e-006 -1.02984 -2.55073 -9.95045 0.207466 -1.6041e-006 -1.61639e-006 -0.0849503 17.5539 68.9672 -20.3234 -8.12926 25.2331 3.48465 
